<svg width="800" height="600" xmlns="http://www.w3.org/2000/svg">

 <g>
  <title>Layer 1</title>
  <defs>
   <style>.cls-1 {
        fill: #1d1e1e;
      }</style>
  </defs>
  <g stroke="null" id="svg_12">
   <g stroke="null" transform="matrix(0.3593688688002337,0,0,0.3593688688002337,-180.27696630860015,-139.53130721613314) " id="svg_5">
    <g stroke="null" id="svg_6">
     <g stroke="null" id="svg_8">
      <path stroke="null" id="svg_9" d="m1437.30631,1143.99451l0,186.15l58.63,33.85l0,-50.78l44,25.39l0,50.78l58.63,33.85l0,-186.14l-161.26,-93.1zm102.6,143.85l-44,-25.37l0,-33.85l44,25.39l0,33.83z" class="cls-1"/>
      <polygon stroke="null" id="svg_10" points="1453.4662704467773,1116.034423828125 1614.6862411499023,1022.844482421875 1658.6662216186523,1048.324462890625 1541.4062118530273,1116.034423828125 1556.0662460327148,1124.494384765625 1673.3162460327148,1056.7845458984375 1775.9162216186523,1116.034423828125 1614.6862411499023,1209.1243896484375 1570.7162704467773,1183.734375 1688.0562362670898,1115.984375 1673.3162460327148,1107.564453125 1556.0662460327148,1175.2744140625 1453.4662704467773,1116.034423828125 " class="cls-1"/>
      <path stroke="null" id="svg_11" d="m1630.81631,1237.07451l0,186.21l58.65,-33.87l0,-50.79l44,-25.4l0,50.79l58.65,-33.86l0,-186.21l-161.3,93.13zm102.64,25.35l-44,25.4l0,-33.82l44,-25.4l0,33.82z" class="cls-1"/>
     </g>
    </g>
   </g>
  </g>
 </g>
</svg>